<svg xmlns="http://www.w3.org/2000/svg" shape-rendering="geometricPrecision" text-rendering="geometricPrecision" image-rendering="optimizeQuality" fill-rule="evenodd" clip-rule="evenodd" viewBox="0 0 421 511.605"><path fill="#E44B4D" d="M95.705.014h199.094L421 136.548v317.555c0 31.54-25.961 57.502-57.502 57.502H95.705c-31.55 0-57.502-25.873-57.502-57.502V57.515C38.203 25.886 64.076.014 95.705.014z"/><path fill="#CD4445" d="M341.028 133.408h-.019L421 188.771v-52.066h-54.357c-9.458-.15-17.998-1.274-25.615-3.297z"/><path fill="#FBCFD0" d="M294.8 0L421 136.533v.172h-54.357c-45.068-.718-69.33-23.397-71.843-61.384V0z"/><path fill="#CD4445" fill-rule="nonzero" d="M0 431.901V253.404l.028-1.261c.668-16.446 14.333-29.706 30.936-29.706h7.238v50.589h342.975c12.862 0 23.373 10.51 23.373 23.371v135.504c0 12.83-10.543 23.373-23.373 23.373H23.373C10.541 455.274 0 444.75 0 431.901z"/><path fill="#963232" fill-rule="nonzero" d="M143.448 240.364a8.496 8.496 0 01-8.496-8.497 8.496 8.496 0 018.496-8.497h163.176a8.496 8.496 0 018.496 8.497 8.496 8.496 0 01-8.496 8.497H143.448zM143.448 181.188a8.496 8.496 0 010-16.993h172.304a8.496 8.496 0 110 16.993H143.448z"/><path fill="#fff" fill-rule="nonzero" d="M11.329 276.171v154.728c0 7.793 6.38 14.178 14.179 14.178H380.175c7.799 0 14.178-6.379 14.178-14.178V297.405c0-7.798-6.388-14.178-14.178-14.178H37.892c-12.618-.096-19.586-1.638-26.563-7.056z"/><path fill="#1A1A1A" fill-rule="nonzero" d="M59.822 401.572l-2.62-20.964h10.875c2.708 0 4.434-.371 5.177-1.114.743-.743 1.113-1.682 1.113-2.817v-36.034H63.492v-20.965h37.08v60.274c0 7.076-1.746 12.449-5.24 16.116-3.494 3.67-8.516 5.504-15.069 5.504H59.822zm50.577-1.44l3.669-21.62c8.037 2.008 15.264 3.012 21.686 3.012 6.42 0 11.595-.262 15.525-.786v-6.551l-11.791-1.049c-10.657-.961-17.974-3.515-21.948-7.664-3.975-4.149-5.962-10.286-5.962-18.411 0-11.181 2.424-18.866 7.272-23.06 4.85-4.194 13.081-6.29 24.699-6.29 11.618 0 22.101 1.092 31.448 3.276l-3.275 20.964c-8.124-1.31-14.633-1.965-19.525-1.965-4.891 0-9.04.219-12.448.655v6.42l9.434.919c11.443 1.134 19.349 3.864 23.716 8.188 4.369 4.325 6.553 10.33 6.553 18.017 0 5.504-.743 10.154-2.228 13.954-1.484 3.8-3.254 6.684-5.307 8.649-2.054 1.965-4.956 3.472-8.713 4.521-3.755 1.047-7.054 1.681-9.893 1.899-2.839.219-6.617.328-11.333.328-11.357 0-21.884-1.135-31.579-3.406zm76.914-39.44c0-14.939 2.796-25.835 8.386-32.692 5.591-6.857 15.681-10.287 30.268-10.287 14.588 0 24.677 3.43 30.267 10.287 5.592 6.857 8.387 17.753 8.387 32.692 0 7.424-.591 13.671-1.77 18.736-1.178 5.067-3.209 9.477-6.093 13.234-2.881 3.758-6.857 6.508-11.922 8.255-5.067 1.747-11.357 2.621-18.869 2.621-7.512 0-13.802-.874-18.869-2.621-5.065-1.747-9.04-4.497-11.924-8.255-2.881-3.757-4.913-8.167-6.093-13.234-1.177-5.065-1.768-11.312-1.768-18.736zm28.171-13.629v34.069h10.877c3.579 0 6.179-.415 7.795-1.246 1.616-.828 2.425-2.729 2.425-5.699v-34.068h-11.008c-3.494 0-6.047.415-7.664 1.245-1.616.829-2.425 2.73-2.425 5.699zm108.362 54.509l-20.048-29.089c-.698-.961-1.135-3.057-1.31-6.29h-.525v35.379h-26.205v-81.894h24.634l20.049 29.089c.697.962 1.134 3.058 1.31 6.29h.522v-35.379h26.208v81.894h-24.635z"/></svg>